<svg xmlns="http://www.w3.org/2000/svg" width="261" height="80"><style>@media (prefers-color-scheme:dark){.a{fill:#fff}}</style><path class="a" fill="#030712" d="M137.127 22.563q.033 0 .067.005c.27.037.459.285.422.556l-.892 6.518a.494.494 0 0 1-.489.427h-18.493l-.273.003-.257.008c-1.871.083-2.46.657-2.772 2.318l-.04.228-.019.119-.567 3.935-.101.742.001.095c.029 1.186.66 1.66 2.426 1.72l.274.007h.143l11.377.001q1.078.008 2.004.115l.332.042.322.05c3.378.564 5.046 2.32 5.046 5.797q0 .152-.01.328l-.016.244-.036.41-.096.994-1.185 8.207c-.869 5.452-3.634 7.901-10.192 7.901h-21.208l-.062-.004a.494.494 0 0 1-.428-.551l.823-6.519a.494.494 0 0 1 .49-.432h18.651l.311-.004.293-.008.141-.006.268-.015.128-.01.244-.022.229-.028c1.253-.174 1.793-.618 2.089-1.559l.05-.171.023-.09.043-.187.021-.098.038-.204.035-.215.178-1.229.233-1.665.118-.897.072-.594.04-.371.021-.259.003-.072-.002-.125q-.077-1.8-3.08-1.8h-9.679l-.214-.001-.42-.005-.206-.005-.404-.012-.392-.018-.192-.011-.376-.026-.366-.032-.178-.018-.349-.04-.338-.045c-3.941-.569-5.651-2.326-5.651-5.792l.001-.098.008-.215.014-.24.021-.266.114-1.315 1.106-7.674.059-.367.064-.357c.746-3.927 2.519-5.964 6.027-6.731l.319-.066a17 17 0 0 1 2.114-.254l.387-.02q.196-.01.398-.015l.407-.01.418-.002zm11.089 0c.263 0 .48.206.493.469l1.572 30.77a.248.248 0 0 0 .48.07l9.381-26.252.119-.342.122-.328c1.144-3.01 2.614-4.387 6.08-4.387 3.398 0 5.215 1.66 5.373 5.057l1.66 26.106a.247.247 0 0 0 .48.064L184.6 22.896a.49.49 0 0 1 .467-.333h7.402q.086 0 .166.029a.493.493 0 0 1 .299.63l-12.17 34.185-.119.35-.122.34a17 17 0 0 1-.38.95l-.134.296c-1.267 2.704-3.07 3.99-6.909 3.99-4.346 0-5.926-1.817-6.163-5.689l-1.656-23.713a.247.247 0 0 0-.479-.066l-8.532 23.859-.13.35-.066.17-.132.332-.067.16-.134.313c-1.378 3.111-3.074 4.284-7.056 4.284-4.186 0-5.71-1.775-6.158-5.135l-.038-.31-.016-.158-.03-.323-2.334-34.317-.001-.033c0-.273.221-.494.493-.494zm55.616 0q.034 0 .068.005c.27.037.459.286.422.556l-5.474 39.783a.495.495 0 0 1-.49.426h-7.694a.494.494 0 0 1-.489-.561l5.474-39.782a.49.49 0 0 1 .489-.427zM218.667 10q.033 0 .067.005c.27.037.459.286.422.556l-1.583 11.44a.494.494 0 0 0 .489.561h5.854l.072.006c.27.04.456.291.416.56l-.96 6.52a.494.494 0 0 1-.489.421h-6.057a.494.494 0 0 0-.489.427l-4.465 32.41a.494.494 0 0 1-.489.427h-7.695a.494.494 0 0 1-.489-.561l7.212-52.346a.494.494 0 0 1 .489-.426zm33.067 12.563c5.768 0 8.692 2.45 8.692 7.27 0 1.077-.066 2.089-.196 2.976l-.041.263-1.218 9.142a.49.49 0 0 1-.332.402l-.06.017-26.348 5.312a.495.495 0 0 0-.393.422l-.472 3.846-.142 1.231-.05.511-.003.055.003.19.003.09.011.175c.09 1.124.576 1.56 1.989 1.73l.219.024.233.02.248.016.263.013.424.015.46.01.851.007.371.001h20.138q.033 0 .066.005c.251.034.432.25.428.498l-.004.057-.815 6.045a.494.494 0 0 1-.434.424l-.056.003h-24.24q-9.007 0-9.007-7.11 0-1.055.187-2.295l.05-.313 3.002-22.045c.813-5.756 3.483-8.262 8.459-8.86l.359-.04q.273-.027.554-.047l.379-.024.387-.018.197-.006.399-.01.203-.001zm-13.598 7.112-.284.004-.138.004-.266.012-.254.016-.123.011-.237.025c-1.892.234-2.685 1.092-3.053 3.495l-.042.302-.039.318-.981 7.328a.247.247 0 0 0 .251.28l.044-.005 17.901-3.729a.49.49 0 0 0 .389-.421l.383-3.106.154-1.37.046-.519.005-.095v-.023c0-1.586-.719-2.288-2.389-2.475l-.251-.023a10 10 0 0 0-.688-.03z"/><path fill="#0F3529" d="M15.067 25.372 29.514 1.295A2.67 2.67 0 0 1 31.8 0h20.447a2.667 2.667 0 0 1 2.287 4.039l-12.8 21.333a2.67 2.67 0 0 1-2.287 1.295h-11.29a2 2 0 0 0-1.716 3.029l11.76 19.599a2.667 2.667 0 0 1-2.287 4.038H15.467a2.67 2.67 0 0 1-2.287-1.294L.38 30.705a2.667 2.667 0 0 1 2.287-4.038h10.114c.936 0 1.804-.492 2.286-1.295"/><path fill="#23C063" d="M64.933 54.628 50.487 78.705A2.67 2.67 0 0 1 48.2 80H27.753a2.667 2.667 0 0 1-2.286-4.039l12.8-21.333a2.67 2.67 0 0 1 2.286-1.295h11.292a2 2 0 0 0 1.715-3.029L41.8 30.705a2.667 2.667 0 0 1 2.287-4.038h20.447c.936 0 1.804.491 2.286 1.294l12.8 21.334a2.667 2.667 0 0 1-2.286 4.038H67.22c-.937 0-1.805.492-2.287 1.295"/></svg>